<svg xmlns="http://www.w3.org/2000/svg" viewBox="0 0 1024 1024" role="img" aria-labelledby="title desc">
  <title id="title">Sanctuary</title>
  <desc id="desc">A white sanctuary outline with a central cross on a transparent background.</desc>
  <g fill="none" stroke="#fffdfb" stroke-width="54" stroke-linecap="round" stroke-linejoin="round">
    <path d="M326 816V386c0-18 8-35 22-47l126-112c22-20 54-20 76 0l126 112c14 12 22 29 22 47v430"/>
    <path d="M326 484 190 586c-14 11-22 27-22 45v123c0 34 28 62 62 62h564c34 0 62-28 62-62V631c0-18-8-34-22-45L698 484"/>
    <path d="M430 816V706c0-45 37-82 82-82s82 37 82 82v110"/>
    <path d="M512 350v174"/>
    <path d="M439 423h146"/>
  </g>
</svg>
