<svg xmlns="http://www.w3.org/2000/svg" viewBox="0 0 1024 1024" role="img" aria-labelledby="title desc">
  <title id="title">Sanctuary Player</title>
  <desc id="desc">A white sanctuary and cross on a coral red rounded square.</desc>
  <defs>
    <linearGradient id="background" x1="160" y1="64" x2="864" y2="960" gradientUnits="userSpaceOnUse">
      <stop offset="0" stop-color="#ff6266"/>
      <stop offset="0.52" stop-color="#f04455"/>
      <stop offset="1" stop-color="#dc2f50"/>
    </linearGradient>
    <linearGradient id="highlight" x1="512" y1="0" x2="512" y2="700" gradientUnits="userSpaceOnUse">
      <stop stop-color="#fff" stop-opacity="0.12"/>
      <stop offset="1" stop-color="#fff" stop-opacity="0"/>
    </linearGradient>
    <filter id="symbol-shadow" x="-20%" y="-20%" width="140%" height="160%" color-interpolation-filters="sRGB">
      <feDropShadow dx="0" dy="18" stdDeviation="18" flood-color="#8e1734" flood-opacity="0.22"/>
    </filter>
  </defs>

  <rect width="1024" height="1024" rx="224" fill="url(#background)"/>
  <path d="M224 0h576c124 0 224 100 224 224v164C820 286 536 244 0 372V224C0 100 100 0 224 0Z" fill="url(#highlight)"/>

  <g fill="none" stroke="#fffdfb" stroke-width="54" stroke-linecap="round" stroke-linejoin="round" filter="url(#symbol-shadow)">
    <path d="M326 816V386c0-18 8-35 22-47l126-112c22-20 54-20 76 0l126 112c14 12 22 29 22 47v430"/>
    <path d="M326 484 190 586c-14 11-22 27-22 45v123c0 34 28 62 62 62h564c34 0 62-28 62-62V631c0-18-8-34-22-45L698 484"/>
    <path d="M430 816V706c0-45 37-82 82-82s82 37 82 82v110"/>
    <path d="M512 350v174"/>
    <path d="M439 423h146"/>
  </g>
</svg>
