<svg xmlns="http://www.w3.org/2000/svg" viewBox="0 0 24 24" width="512" height="512">
  <defs>
    <linearGradient id="bg" x1="0" y1="0" x2="1" y2="1">
      <stop offset="0" stop-color="#1a2347"/>
      <stop offset="1" stop-color="#0b1020"/>
    </linearGradient>
    <linearGradient id="gold" x1="0" y1="0" x2="1" y2="1">
      <stop offset="0" stop-color="#f0cd95"/>
      <stop offset="1" stop-color="#b4894a"/>
    </linearGradient>
  </defs>
  <rect width="24" height="24" fill="url(#bg)"/>
  <!-- Exact lucide "church" paths; stroke-width in 24-space renders ~21px on a 512 canvas -->
  <g fill="none" stroke="url(#gold)" stroke-width="1" stroke-linecap="round" stroke-linejoin="round">
    <path d="M10 9h4"/>
    <path d="M12 7v5"/>
    <path d="M14 21v-3a2 2 0 0 0-4 0v3"/>
    <path d="m18 9 3.52 2.147a1 1 0 0 1 .48.854V19a2 2 0 0 1-2 2H4a2 2 0 0 1-2-2v-6.999a1 1 0 0 1 .48-.854L6 9"/>
    <path d="M6 21V7a1 1 0 0 1 .376-.782l5-3.999a1 1 0 0 1 1.249.001l5 4A1 1 0 0 1 18 7v14"/>
  </g>
</svg>
